# xmcd
#
# Track frame offsets: 
#        150
#        16479
#        32865
#        48914
#        68690
#        86886
#        104172
#        116513
#        131541
#        150112
#        162695
#        178584
#        199527
#        226047
#        242446
#
# Disc length: 3446 seconds
#
# Revision: 0
# Processed by: cddbd v1.5.2PL0 Copyright (c) Steve Scherf et al.
# Submitted via: ExactAudioCopyFreeDBPlugin 1.0
#
DISCID=bc0d740f
DTITLE=Various Artist - American Heartland
DYEAR=2013
DGENRE=Country
TTITLE0=Train - Hey, Soul Sister
TTITLE1=Gavin DeGraw - I Don't Want To Be
TTITLE2=Luke Bryan - Drunk On You
TTITLE3=Eric Church - Springsteen
TTITLE4=Mary Chapin Carpenter - He Thinks He'll Keep Her
TTITLE5=Alan Jackson and Jimmy Buffett - It's Five O'Clock Somewhere
TTITLE6=Jace Everett - Bad Things
TTITLE7=Love and Theft - Runnin' Out Of Air
TTITLE8=Scotty McCreery - I Love You This Big
TTITLE9=Tate Stevens - Holler If You're With Me
TTITLE10=Jake Owen - Alone With You
TTITLE11=Shawn Colvin - Never Saw Blue Like That
TTITLE12=Tedeschi Trucks Band - Midnight In Harlem
TTITLE13=Darius Rucker - It Won't Be Like This For Long
TTITLE14=Little Big Town - Pontoon
EXTD=
EXTT0=
EXTT1=
EXTT2=
EXTT3=
EXTT4=
EXTT5=
EXTT6=
EXTT7=
EXTT8=
EXTT9=
EXTT10=
EXTT11=
EXTT12=
EXTT13=
EXTT14=
PLAYORDER=
